<svg width="174" height="295" viewBox="0 0 174 295" fill="none" xmlns="http://www.w3.org/2000/svg">
<g clip-path="url(#clip0)">
<rect width="143.51" height="66.6159" transform="matrix(0.712951 -0.701214 0.731647 0.681684 11.4727 103.866)" fill="white"/>
<rect width="143.791" height="65.6682" transform="matrix(0.719041 0.694967 -0.725675 0.688037 57.7897 3.94427)" fill="white"/>
<path d="M137.475 76.2572L162.712 51.2198C163.45 50.4819 163.864 49.4845 163.864 48.445C163.864 47.4054 163.45 46.408 162.712 45.6701L117.875 1.14504C117.124 0.410276 116.111 -0.00164795 115.056 -0.00164795C114.002 -0.00164795 112.989 0.410276 112.238 1.14504L87.0011 26.1824L61.7641 1.14504C61.013 0.410276 60.0005 -0.00164795 58.9457 -0.00164795C57.8909 -0.00164795 56.8785 0.410276 56.1274 1.14504L11.29 45.6701C10.552 46.408 10.1379 47.4054 10.1379 48.445C10.1379 49.4845 10.552 50.4819 11.29 51.2198L36.527 76.2572L11.29 101.295C10.5494 102.04 10.1342 103.044 10.1342 104.091C10.1342 105.137 10.5494 106.142 11.29 106.887L56.1274 151.369C56.4953 151.739 56.9346 152.03 57.4189 152.227C57.9032 152.423 58.4225 152.521 58.9457 152.513C59.4696 152.526 59.9904 152.43 60.4754 152.234C60.9604 152.037 61.3992 151.743 61.7641 151.369L87.0011 126.332L112.238 151.369C112.603 151.743 113.042 152.037 113.527 152.234C114.012 152.43 114.533 152.526 115.056 152.513C115.58 152.521 116.099 152.423 116.583 152.227C117.068 152.03 117.507 151.739 117.875 151.369L162.712 106.887C163.453 106.142 163.868 105.137 163.868 104.091C163.868 103.044 163.453 102.04 162.712 101.295L137.475 76.2572ZM19.7023 48.4661L58.9457 9.49084L70.1764 20.6327L50.5334 40.078C49.7928 40.8231 49.3775 41.8276 49.3775 42.874C49.3775 43.9205 49.7928 44.9249 50.5334 45.6701C51.2845 46.4049 52.2969 46.8168 53.3517 46.8168C54.4065 46.8168 55.419 46.4049 56.1701 45.6701L75.7704 26.1824L81.4071 31.7745L78.4607 34.5282L61.636 51.2198L44.9394 67.7843L42.1637 70.5804L19.7023 48.4661ZM81.4071 120.782L58.9457 143.024L19.7023 104.091L30.933 92.9488L50.5761 112.436C51.3126 113.166 52.3109 113.576 53.3517 113.576C54.3925 113.576 55.3908 113.166 56.1274 112.436C56.5032 112.077 56.8021 111.646 57.0063 111.169C57.2104 110.692 57.3157 110.18 57.3157 109.662C57.3157 109.144 57.2104 108.631 57.0063 108.154C56.8021 107.677 56.5032 107.246 56.1274 106.887L36.527 87.3991L42.1637 81.8493L47.7577 76.2572L56.2982 84.7301C56.6661 85.0992 57.1054 85.3908 57.5897 85.5873C58.074 85.7839 58.5933 85.8814 59.1165 85.874C59.6404 85.8864 60.1612 85.7912 60.6462 85.5943C61.1312 85.3975 61.57 85.1032 61.9349 84.7301C62.3107 84.3705 62.6096 83.9395 62.8138 83.4627C63.018 82.9859 63.1232 82.4733 63.1232 81.9552C63.1232 81.4372 63.018 80.9246 62.8138 80.4478C62.6096 79.971 62.3107 79.54 61.9349 79.1804L53.3944 70.7075L64.5824 59.5656L84.2255 79.0533C84.9729 79.7948 85.9867 80.2114 87.0438 80.2114C88.1009 80.2114 89.1147 79.7948 89.8622 79.0533C90.6096 78.3117 91.0296 77.306 91.0296 76.2572C91.0296 75.2085 90.6096 74.2027 89.8622 73.4612L87.0011 70.6651L70.1764 53.9735L78.7169 45.5006L81.5352 42.7469L87.0011 48.4661L89.8195 51.2198C90.5613 51.9726 91.5741 52.4022 92.6352 52.4142C93.6963 52.4261 94.7187 52.0193 95.4775 51.2834C96.2363 50.5474 96.6693 49.5426 96.6814 48.4899C96.6934 47.4372 96.2834 46.4229 95.5416 45.6701L92.7659 42.9164L87.0011 37.3243L89.8195 34.5282L92.6378 31.7745L98.2318 26.1824L117.875 45.6701C118.611 46.3996 119.61 46.8094 120.65 46.8094C121.691 46.8094 122.69 46.3996 123.426 45.6701C123.802 45.3105 124.101 44.8794 124.305 44.4027C124.509 43.9259 124.614 43.4132 124.614 42.8952C124.614 42.3772 124.509 41.8645 124.305 41.3878C124.101 40.911 123.802 40.4799 123.426 40.1203L103.826 20.6327L115.056 9.49084L154.3 48.4661L131.881 70.7075L129.063 73.4612L126.244 76.2572L117.704 84.7301L87.0011 115.19L81.4071 120.782ZM115.056 143.024L92.6378 120.782L131.881 81.8493L137.475 87.3991L117.832 106.844C117.092 107.59 116.676 108.594 116.676 109.64C116.676 110.687 117.092 111.691 117.832 112.436C118.583 113.171 119.596 113.583 120.65 113.583C121.705 113.583 122.718 113.171 123.469 112.436L143.069 92.9488L154.3 104.091L115.056 143.024Z" fill="black"/>
<mask id="path-4-inside-1" fill="white">
<rect x="46.2285" y="35.4985" width="81.5427" height="80.2003" rx="3"/>
</mask>
<rect x="46.2285" y="35.4985" width="81.5427" height="80.2003" rx="3" fill="white" stroke="black" stroke-width="10" mask="url(#path-4-inside-1)"/>
<ellipse cx="67.6168" cy="56.5347" rx="6.68383" ry="6.5738" fill="black"/>
<ellipse cx="67.6168" cy="95.9774" rx="6.68383" ry="6.57379" fill="black"/>
<ellipse cx="105.046" cy="56.5347" rx="6.68383" ry="6.5738" fill="black"/>
<ellipse cx="105.046" cy="95.9774" rx="6.68383" ry="6.57379" fill="black"/>
<ellipse cx="86.3315" cy="76.2561" rx="6.68383" ry="6.57381" fill="black"/>
</g>
<path d="M37.5668 200.472V190.68C37.5668 189.912 37.4388 189.421 37.1828 189.208C36.9694 188.952 36.4788 188.824 35.7108 188.824H30.9748C27.0921 188.824 25.1508 186.925 25.1508 183.128V172.568C25.1508 168.813 27.1348 166.936 31.1028 166.936H37.3748C41.3428 166.936 43.3268 168.813 43.3268 172.568V178.456H37.5028V173.464C37.5028 172.696 37.3748 172.205 37.1188 171.992C36.8628 171.736 36.3508 171.608 35.5828 171.608H32.8948C32.1268 171.608 31.6148 171.736 31.3588 171.992C31.1028 172.205 30.9748 172.696 30.9748 173.464V182.36C30.9748 183.128 31.1028 183.64 31.3588 183.896C31.6148 184.109 32.1268 184.216 32.8948 184.216H37.5668C41.4921 184.216 43.4548 186.093 43.4548 189.848V201.368C43.4548 205.123 41.4494 207 37.4388 207H31.2308C27.2628 207 25.2788 205.123 25.2788 201.368V195.48H31.1028V200.472C31.1028 201.24 31.2308 201.752 31.4868 202.008C31.7428 202.221 32.2548 202.328 33.0228 202.328H35.7108C36.4788 202.328 36.9694 202.221 37.1828 202.008C37.4388 201.752 37.5668 201.24 37.5668 200.472ZM66.3238 185.624H60.6278V182.296C60.6278 181.528 60.4998 181.037 60.2438 180.824C59.9878 180.568 59.4758 180.44 58.7078 180.44H55.9558C55.1878 180.44 54.6758 180.568 54.4198 180.824C54.1638 181.037 54.0358 181.528 54.0358 182.296V200.472C54.0358 201.24 54.1638 201.752 54.4198 202.008C54.6758 202.221 55.1878 202.328 55.9558 202.328H58.7078C59.4758 202.328 59.9878 202.221 60.2438 202.008C60.4998 201.752 60.6278 201.24 60.6278 200.472V197.144H66.3238V201.368C66.3238 205.123 64.3184 207 60.3078 207H54.2278C50.2598 207 48.2758 205.123 48.2758 201.368V181.464C48.2758 177.667 50.2598 175.768 54.2278 175.768H60.3078C64.3184 175.768 66.3238 177.667 66.3238 181.464V185.624ZM76.6653 175.768H83.5133C87.4813 175.768 89.4653 177.667 89.4653 181.464V201.368C89.4653 205.123 87.4813 207 83.5133 207H76.6653C72.7399 207 70.7773 205.123 70.7773 201.368V181.464C70.7773 177.667 72.7399 175.768 76.6653 175.768ZM83.7693 200.536V182.232C83.7693 181.464 83.6413 180.952 83.3853 180.696C83.1293 180.44 82.6173 180.312 81.8493 180.312H78.3293C77.5613 180.312 77.0493 180.44 76.7933 180.696C76.5799 180.952 76.4733 181.464 76.4733 182.232V200.536C76.4733 201.304 76.5799 201.816 76.7933 202.072C77.0493 202.328 77.5613 202.456 78.3293 202.456H81.8493C82.6173 202.456 83.1293 202.328 83.3853 202.072C83.6413 201.816 83.7693 201.304 83.7693 200.536ZM105.601 175.704H106.881V180.696H104.577C101.889 180.696 100.545 182.275 100.545 185.432V207H94.7848V175.768H100.545V179.608C100.886 178.499 101.483 177.581 102.337 176.856C103.233 176.088 104.321 175.704 105.601 175.704ZM115.859 175.768H122.131C126.141 175.768 128.147 177.667 128.147 181.464V193.176H115.539V200.6C115.539 201.325 115.667 201.816 115.923 202.072C116.179 202.328 116.691 202.456 117.459 202.456H120.403C121.171 202.456 121.683 202.328 121.939 202.072C122.195 201.816 122.323 201.304 122.323 200.536V197.976H127.955V201.368C127.955 205.123 125.971 207 122.003 207H115.859C111.891 207 109.907 205.123 109.907 201.368V181.464C109.907 177.667 111.891 175.768 115.859 175.768ZM115.539 188.952H122.451V182.168C122.451 181.443 122.323 180.952 122.067 180.696C121.853 180.44 121.363 180.312 120.595 180.312H117.459C116.691 180.312 116.179 180.44 115.923 180.696C115.667 180.952 115.539 181.443 115.539 182.168V188.952ZM143.529 200.728V195.544C143.529 194.776 143.401 194.285 143.145 194.072C142.889 193.816 142.377 193.688 141.609 193.688H138.345C134.377 193.688 132.393 191.811 132.393 188.056V181.464C132.393 177.667 134.377 175.768 138.345 175.768H143.017C147.028 175.768 149.033 177.667 149.033 181.464V184.472H143.401V182.04C143.401 181.272 143.273 180.781 143.017 180.568C142.761 180.312 142.249 180.184 141.481 180.184H139.945C139.177 180.184 138.665 180.312 138.409 180.568C138.153 180.781 138.025 181.272 138.025 182.04V187.416C138.025 188.184 138.153 188.696 138.409 188.952C138.665 189.165 139.177 189.272 139.945 189.272H143.273C147.199 189.272 149.161 191.171 149.161 194.968V201.368C149.161 205.123 147.177 207 143.209 207H138.473C134.505 207 132.521 205.123 132.521 201.368V198.296H138.153V200.728C138.153 201.496 138.281 202.008 138.537 202.264C138.793 202.477 139.305 202.584 140.073 202.584H141.609C142.377 202.584 142.889 202.477 143.145 202.264C143.401 202.008 143.529 201.496 143.529 200.728Z" fill="white"/>
<path d="M58.8313 253.071V245.727C58.8313 245.151 58.7353 244.783 58.5433 244.623C58.3833 244.431 58.0153 244.335 57.4393 244.335H53.8873C50.9753 244.335 49.5193 242.911 49.5193 240.063V232.143C49.5193 229.327 51.0073 227.919 53.9833 227.919H58.6873C61.6633 227.919 63.1513 229.327 63.1513 232.143V236.559H58.7833V232.815C58.7833 232.239 58.6873 231.871 58.4953 231.711C58.3033 231.519 57.9193 231.423 57.3433 231.423H55.3273C54.7513 231.423 54.3673 231.519 54.1753 231.711C53.9833 231.871 53.8873 232.239 53.8873 232.815V239.487C53.8873 240.063 53.9833 240.447 54.1753 240.639C54.3673 240.799 54.7513 240.879 55.3273 240.879H58.8313C61.7753 240.879 63.2473 242.287 63.2473 245.103V253.743C63.2473 256.559 61.7433 257.967 58.7353 257.967H54.0793C51.1033 257.967 49.6153 256.559 49.6153 253.743V249.327H53.9833V253.071C53.9833 253.647 54.0793 254.031 54.2713 254.223C54.4633 254.383 54.8473 254.463 55.4233 254.463H57.4393C58.0153 254.463 58.3833 254.383 58.5433 254.223C58.7353 254.031 58.8313 253.647 58.8313 253.071ZM75.8871 234.543H80.2071V257.967H75.8871V256.095C75.4711 257.343 74.4791 257.967 72.9111 257.967H71.1831C68.3031 257.967 66.8631 256.559 66.8631 253.743V238.815C66.8631 235.967 68.3031 234.543 71.1831 234.543H72.9111C74.4791 234.543 75.4711 235.167 75.8871 236.415V234.543ZM72.6231 254.463H74.3031C74.8791 254.463 75.2791 254.335 75.5031 254.079C75.7591 253.823 75.8871 253.391 75.8871 252.783V239.727C75.8871 239.119 75.7591 238.687 75.5031 238.431C75.2791 238.175 74.8791 238.047 74.3031 238.047H72.6231C72.0471 238.047 71.6631 238.143 71.4711 238.335C71.2791 238.495 71.1831 238.863 71.1831 239.439V253.071C71.1831 253.647 71.2791 254.031 71.4711 254.223C71.6631 254.383 72.0471 254.463 72.6231 254.463ZM86.8479 234.543L89.9199 254.319L93.0399 234.543H97.3599L93.0399 257.967H86.8479L82.5279 234.543H86.8479ZM104.05 234.543H108.754C111.762 234.543 113.266 235.967 113.266 238.815V247.599H103.81V253.167C103.81 253.711 103.906 254.079 104.098 254.271C104.29 254.463 104.674 254.559 105.25 254.559H107.458C108.034 254.559 108.418 254.463 108.61 254.271C108.802 254.079 108.898 253.695 108.898 253.119V251.199H113.122V253.743C113.122 256.559 111.634 257.967 108.658 257.967H104.05C101.074 257.967 99.5863 256.559 99.5863 253.743V238.815C99.5863 235.967 101.074 234.543 104.05 234.543ZM103.81 244.431H108.994V239.343C108.994 238.799 108.898 238.431 108.706 238.239C108.546 238.047 108.178 237.951 107.602 237.951H105.25C104.674 237.951 104.29 238.047 104.098 238.239C103.906 238.431 103.81 238.799 103.81 239.343V244.431ZM125.091 234.495H126.051V238.239H124.323C122.307 238.239 121.299 239.423 121.299 241.791V257.967H116.979V234.543H121.299V237.423C121.555 236.591 122.003 235.903 122.643 235.359C123.315 234.783 124.131 234.495 125.091 234.495Z" fill="#11E485"/>
<defs>
<clipPath id="clip0">
<rect width="153.728" height="190.64" fill="white" transform="translate(10.1359)"/>
</clipPath>
</defs>
</svg>
