<svg width="42" height="42" viewBox="0 0 42 42" fill="none" xmlns="http://www.w3.org/2000/svg">
<rect width="37.3411" height="17.3334" transform="matrix(0.712951 -0.701214 0.731646 0.681684 1.34778 28.0259)" fill="white"/>
<rect width="37.4144" height="17.0868" transform="matrix(0.719041 0.694967 -0.725675 0.688037 13.3995 2.02631)" fill="white"/>
<path d="M34.1337 20.8421L40.7004 14.3274C40.8924 14.1354 41.0001 13.8758 41.0001 13.6054C41.0001 13.3349 40.8924 13.0754 40.7004 12.8833L29.0337 1.29794C28.8383 1.10676 28.5748 0.999573 28.3004 0.999573C28.0259 0.999573 27.7625 1.10676 27.567 1.29794L21.0004 7.81266L14.4337 1.29794C14.2383 1.10676 13.9748 0.999573 13.7004 0.999573C13.4259 0.999573 13.1625 1.10676 12.967 1.29794L1.30038 12.8833C1.10836 13.0754 1.00061 13.3349 1.00061 13.6054C1.00061 13.8758 1.10836 14.1354 1.30038 14.3274L7.86705 20.8421L1.30038 27.3568C1.10767 27.5507 0.999634 27.8121 0.999634 28.0844C0.999634 28.3566 1.10767 28.618 1.30038 28.8119L12.967 40.3863C13.0628 40.4823 13.1771 40.5582 13.3031 40.6093C13.4291 40.6604 13.5642 40.6858 13.7004 40.6839C13.8367 40.6871 13.9722 40.6623 14.0984 40.6111C14.2246 40.5599 14.3388 40.4834 14.4337 40.3863L21.0004 33.8715L27.567 40.3863C27.662 40.4834 27.7762 40.5599 27.9024 40.6111C28.0286 40.6623 28.1641 40.6871 28.3004 40.6839C28.4365 40.6858 28.5716 40.6604 28.6977 40.6093C28.8237 40.5582 28.938 40.4823 29.0337 40.3863L40.7004 28.8119C40.8931 28.618 41.0011 28.3566 41.0011 28.0844C41.0011 27.8121 40.8931 27.5507 40.7004 27.3568L34.1337 20.8421ZM3.48927 13.6109L13.7004 3.46951L16.6226 6.36862L11.5115 11.4283C11.3188 11.6222 11.2107 11.8835 11.2107 12.1558C11.2107 12.4281 11.3188 12.6895 11.5115 12.8833C11.7069 13.0745 11.9704 13.1817 12.2448 13.1817C12.5193 13.1817 12.7827 13.0745 12.9782 12.8833L18.0782 7.81266L19.5448 9.26773L18.7782 9.98423L14.4004 14.3274L10.0559 18.6375L9.33371 19.365L3.48927 13.6109ZM19.5448 32.4275L13.7004 38.2147L3.48927 28.0844L6.41149 25.1852L11.5226 30.2559C11.7143 30.4458 11.974 30.5524 12.2448 30.5524C12.5156 30.5524 12.7754 30.4458 12.967 30.2559C13.0648 30.1624 13.1426 30.0502 13.1957 29.9261C13.2489 29.8021 13.2762 29.6687 13.2762 29.5339C13.2762 29.3991 13.2489 29.2657 13.1957 29.1417C13.1426 29.0176 13.0648 28.9055 12.967 28.8119L7.86705 23.7412L9.33371 22.2972L10.7893 20.8421L13.0115 23.0467C13.1072 23.1428 13.2215 23.2186 13.3475 23.2698C13.4736 23.3209 13.6087 23.3463 13.7448 23.3444C13.8811 23.3476 14.0167 23.3228 14.1429 23.2716C14.2691 23.2204 14.3832 23.1438 14.4782 23.0467C14.5759 22.9532 14.6537 22.841 14.7069 22.717C14.76 22.5929 14.7874 22.4595 14.7874 22.3247C14.7874 22.1899 14.76 22.0565 14.7069 21.9325C14.6537 21.8084 14.5759 21.6963 14.4782 21.6027L12.2559 19.3981L15.167 16.499L20.2782 21.5696C20.4727 21.7626 20.7364 21.871 21.0115 21.871C21.2865 21.871 21.5503 21.7626 21.7448 21.5696C21.9393 21.3767 22.0486 21.115 22.0486 20.8421C22.0486 20.5692 21.9393 20.3075 21.7448 20.1146L21.0004 19.387L16.6226 15.0439L18.8448 12.8392L19.5782 12.1227L21.0004 13.6109L21.7337 14.3274C21.9267 14.5233 22.1903 14.635 22.4664 14.6381C22.7425 14.6412 23.0085 14.5354 23.2059 14.3439C23.4034 14.1524 23.5161 13.891 23.5192 13.6171C23.5223 13.3431 23.4156 13.0792 23.2226 12.8833L22.5004 12.1668L21.0004 10.7118L21.7337 9.98423L22.467 9.26773L23.9226 7.81266L29.0337 12.8833C29.2254 13.0732 29.4851 13.1798 29.7559 13.1798C30.0268 13.1798 30.2865 13.0732 30.4782 12.8833C30.5759 12.7898 30.6537 12.6776 30.7069 12.5536C30.76 12.4295 30.7874 12.2961 30.7874 12.1613C30.7874 12.0265 30.76 11.8931 30.7069 11.7691C30.6537 11.645 30.5759 11.5329 30.4782 11.4393L25.3782 6.36862L28.3004 3.46951L38.5115 13.6109L32.6782 19.3981L31.9448 20.1146L31.2115 20.8421L28.9893 23.0467L21.0004 30.9724L19.5448 32.4275ZM28.3004 38.2147L22.467 32.4275L32.6782 22.2972L34.1337 23.7412L29.0226 28.8009C28.8299 28.9948 28.7219 29.2561 28.7219 29.5284C28.7219 29.8007 28.8299 30.062 29.0226 30.2559C29.218 30.4471 29.4815 30.5543 29.7559 30.5543C30.0304 30.5543 30.2938 30.4471 30.4893 30.2559L35.5893 25.1852L38.5115 28.0844L28.3004 38.2147Z" fill="#3C4253"/>
<rect x="11.3914" y="11.2367" width="19.2174" height="18.8681" rx="2" fill="white" stroke="#3C4253" stroke-width="2"/>
<ellipse cx="15.9565" cy="15.7103" rx="1.73913" ry="1.7105" fill="#3C4253"/>
<ellipse cx="15.9565" cy="25.9733" rx="1.73913" ry="1.7105" fill="#3C4253"/>
<ellipse cx="25.6957" cy="15.7103" rx="1.73913" ry="1.7105" fill="#3C4253"/>
<ellipse cx="25.6957" cy="25.9733" rx="1.73913" ry="1.7105" fill="#3C4253"/>
<ellipse cx="20.826" cy="20.8418" rx="1.73913" ry="1.7105" fill="#3C4253"/>
</svg>
