<svg width="151" height="258" viewBox="0 0 151 258" fill="none" xmlns="http://www.w3.org/2000/svg">
<g clip-path="url(#clip0)">
<g clip-path="url(#clip1)">
<rect width="143.51" height="66.6159" transform="matrix(0.712951 -0.701214 0.731647 0.681684 1.47266 103.866)" fill="white"/>
<rect width="143.791" height="65.6682" transform="matrix(0.719041 0.694967 -0.725675 0.688037 47.7897 3.94427)" fill="white"/>
<path d="M127.475 76.2572L152.712 51.2198C153.45 50.4819 153.864 49.4845 153.864 48.445C153.864 47.4054 153.45 46.408 152.712 45.6701L107.875 1.14504C107.124 0.410276 106.111 -0.00164795 105.056 -0.00164795C104.002 -0.00164795 102.989 0.410276 102.238 1.14504L77.0011 26.1824L51.7641 1.14504C51.013 0.410276 50.0005 -0.00164795 48.9457 -0.00164795C47.8909 -0.00164795 46.8785 0.410276 46.1274 1.14504L1.28999 45.6701C0.552013 46.408 0.137914 47.4054 0.137914 48.445C0.137914 49.4845 0.552013 50.4819 1.28999 51.2198L26.527 76.2572L1.28999 101.295C0.549364 102.04 0.134155 103.044 0.134155 104.091C0.134155 105.137 0.549364 106.142 1.28999 106.887L46.1274 151.369C46.4953 151.739 46.9346 152.03 47.4189 152.227C47.9032 152.423 48.4225 152.521 48.9457 152.513C49.4696 152.526 49.9904 152.43 50.4754 152.234C50.9604 152.037 51.3992 151.743 51.7641 151.369L77.0011 126.332L102.238 151.369C102.603 151.743 103.042 152.037 103.527 152.234C104.012 152.43 104.533 152.526 105.056 152.513C105.58 152.521 106.099 152.423 106.583 152.227C107.068 152.03 107.507 151.739 107.875 151.369L152.712 106.887C153.453 106.142 153.868 105.137 153.868 104.091C153.868 103.044 153.453 102.04 152.712 101.295L127.475 76.2572ZM9.70233 48.4661L48.9457 9.49084L60.1764 20.6327L40.5334 40.078C39.7928 40.8231 39.3775 41.8276 39.3775 42.874C39.3775 43.9205 39.7928 44.9249 40.5334 45.6701C41.2845 46.4049 42.2969 46.8168 43.3517 46.8168C44.4065 46.8168 45.419 46.4049 46.1701 45.6701L65.7704 26.1824L71.4071 31.7745L68.4607 34.5282L51.636 51.2198L34.9394 67.7843L32.1637 70.5804L9.70233 48.4661ZM71.4071 120.782L48.9457 143.024L9.70233 104.091L20.933 92.9488L40.5761 112.436C41.3126 113.166 42.3109 113.576 43.3517 113.576C44.3925 113.576 45.3908 113.166 46.1274 112.436C46.5032 112.077 46.8021 111.646 47.0063 111.169C47.2104 110.692 47.3157 110.18 47.3157 109.662C47.3157 109.144 47.2104 108.631 47.0063 108.154C46.8021 107.677 46.5032 107.246 46.1274 106.887L26.527 87.3991L32.1637 81.8493L37.7577 76.2572L46.2982 84.7301C46.6661 85.0992 47.1054 85.3908 47.5897 85.5873C48.074 85.7839 48.5933 85.8814 49.1165 85.874C49.6404 85.8864 50.1612 85.7912 50.6462 85.5943C51.1312 85.3975 51.57 85.1032 51.9349 84.7301C52.3107 84.3705 52.6096 83.9395 52.8138 83.4627C53.018 82.9859 53.1232 82.4733 53.1232 81.9552C53.1232 81.4372 53.018 80.9246 52.8138 80.4478C52.6096 79.971 52.3107 79.54 51.9349 79.1804L43.3944 70.7075L54.5824 59.5656L74.2255 79.0533C74.9729 79.7948 75.9867 80.2114 77.0438 80.2114C78.1009 80.2114 79.1147 79.7948 79.8622 79.0533C80.6096 78.3117 81.0296 77.306 81.0296 76.2572C81.0296 75.2085 80.6096 74.2027 79.8622 73.4612L77.0011 70.6651L60.1764 53.9735L68.7169 45.5006L71.5352 42.7469L77.0011 48.4661L79.8195 51.2198C80.5613 51.9726 81.5741 52.4022 82.6352 52.4142C83.6963 52.4261 84.7187 52.0193 85.4775 51.2834C86.2363 50.5474 86.6693 49.5426 86.6814 48.4899C86.6934 47.4372 86.2834 46.4229 85.5416 45.6701L82.7659 42.9164L77.0011 37.3243L79.8195 34.5282L82.6378 31.7745L88.2318 26.1824L107.875 45.6701C108.611 46.3996 109.61 46.8094 110.65 46.8094C111.691 46.8094 112.69 46.3996 113.426 45.6701C113.802 45.3105 114.101 44.8794 114.305 44.4027C114.509 43.9259 114.614 43.4132 114.614 42.8952C114.614 42.3772 114.509 41.8645 114.305 41.3878C114.101 40.911 113.802 40.4799 113.426 40.1203L93.8258 20.6327L105.056 9.49084L144.3 48.4661L121.881 70.7075L119.063 73.4612L116.244 76.2572L107.704 84.7301L77.0011 115.19L71.4071 120.782ZM105.056 143.024L82.6378 120.782L121.881 81.8493L127.475 87.3991L107.832 106.844C107.092 107.59 106.676 108.594 106.676 109.64C106.676 110.687 107.092 111.691 107.832 112.436C108.583 113.171 109.596 113.583 110.65 113.583C111.705 113.583 112.718 113.171 113.469 112.436L133.069 92.9488L144.3 104.091L105.056 143.024Z" fill="black"/>
<mask id="path-4-inside-1" fill="white">
<rect x="36.2285" y="35.4985" width="81.5427" height="80.2003" rx="3"/>
</mask>
<rect x="36.2285" y="35.4985" width="81.5427" height="80.2003" rx="3" fill="white" stroke="black" stroke-width="10" mask="url(#path-4-inside-1)"/>
<ellipse cx="57.6168" cy="56.5347" rx="6.68383" ry="6.5738" fill="black"/>
<ellipse cx="57.6168" cy="95.9774" rx="6.68383" ry="6.57379" fill="black"/>
<ellipse cx="95.0463" cy="56.5347" rx="6.68383" ry="6.5738" fill="black"/>
<ellipse cx="95.0463" cy="95.9774" rx="6.68383" ry="6.57379" fill="black"/>
<ellipse cx="76.3315" cy="76.2561" rx="6.68383" ry="6.57381" fill="black"/>
</g>
<path d="M27.5668 200.472V190.68C27.5668 189.912 27.4388 189.421 27.1828 189.208C26.9694 188.952 26.4788 188.824 25.7108 188.824H20.9748C17.0921 188.824 15.1508 186.925 15.1508 183.128V172.568C15.1508 168.813 17.1348 166.936 21.1028 166.936H27.3748C31.3428 166.936 33.3268 168.813 33.3268 172.568V178.456H27.5028V173.464C27.5028 172.696 27.3748 172.205 27.1188 171.992C26.8628 171.736 26.3508 171.608 25.5828 171.608H22.8948C22.1268 171.608 21.6148 171.736 21.3588 171.992C21.1028 172.205 20.9748 172.696 20.9748 173.464V182.36C20.9748 183.128 21.1028 183.64 21.3588 183.896C21.6148 184.109 22.1268 184.216 22.8948 184.216H27.5668C31.4921 184.216 33.4548 186.093 33.4548 189.848V201.368C33.4548 205.123 31.4494 207 27.4388 207H21.2308C17.2628 207 15.2788 205.123 15.2788 201.368V195.48H21.1028V200.472C21.1028 201.24 21.2308 201.752 21.4868 202.008C21.7428 202.221 22.2548 202.328 23.0228 202.328H25.7108C26.4788 202.328 26.9694 202.221 27.1828 202.008C27.4388 201.752 27.5668 201.24 27.5668 200.472ZM56.3238 185.624H50.6278V182.296C50.6278 181.528 50.4998 181.037 50.2438 180.824C49.9878 180.568 49.4758 180.44 48.7078 180.44H45.9558C45.1878 180.44 44.6758 180.568 44.4198 180.824C44.1638 181.037 44.0358 181.528 44.0358 182.296V200.472C44.0358 201.24 44.1638 201.752 44.4198 202.008C44.6758 202.221 45.1878 202.328 45.9558 202.328H48.7078C49.4758 202.328 49.9878 202.221 50.2438 202.008C50.4998 201.752 50.6278 201.24 50.6278 200.472V197.144H56.3238V201.368C56.3238 205.123 54.3184 207 50.3078 207H44.2278C40.2598 207 38.2758 205.123 38.2758 201.368V181.464C38.2758 177.667 40.2598 175.768 44.2278 175.768H50.3078C54.3184 175.768 56.3238 177.667 56.3238 181.464V185.624ZM66.6653 175.768H73.5133C77.4813 175.768 79.4653 177.667 79.4653 181.464V201.368C79.4653 205.123 77.4813 207 73.5133 207H66.6653C62.7399 207 60.7773 205.123 60.7773 201.368V181.464C60.7773 177.667 62.7399 175.768 66.6653 175.768ZM73.7693 200.536V182.232C73.7693 181.464 73.6413 180.952 73.3853 180.696C73.1293 180.44 72.6173 180.312 71.8493 180.312H68.3293C67.5613 180.312 67.0493 180.44 66.7933 180.696C66.5799 180.952 66.4733 181.464 66.4733 182.232V200.536C66.4733 201.304 66.5799 201.816 66.7933 202.072C67.0493 202.328 67.5613 202.456 68.3293 202.456H71.8493C72.6173 202.456 73.1293 202.328 73.3853 202.072C73.6413 201.816 73.7693 201.304 73.7693 200.536ZM95.6008 175.704H96.8808V180.696H94.5768C91.8888 180.696 90.5448 182.275 90.5448 185.432V207H84.7848V175.768H90.5448V179.608C90.8861 178.499 91.4834 177.581 92.3368 176.856C93.2328 176.088 94.3208 175.704 95.6008 175.704ZM105.859 175.768H112.131C116.141 175.768 118.147 177.667 118.147 181.464V193.176H105.539V200.6C105.539 201.325 105.667 201.816 105.923 202.072C106.179 202.328 106.691 202.456 107.459 202.456H110.403C111.171 202.456 111.683 202.328 111.939 202.072C112.195 201.816 112.323 201.304 112.323 200.536V197.976H117.955V201.368C117.955 205.123 115.971 207 112.003 207H105.859C101.891 207 99.9068 205.123 99.9068 201.368V181.464C99.9068 177.667 101.891 175.768 105.859 175.768ZM105.539 188.952H112.451V182.168C112.451 181.443 112.323 180.952 112.067 180.696C111.853 180.44 111.363 180.312 110.595 180.312H107.459C106.691 180.312 106.179 180.44 105.923 180.696C105.667 180.952 105.539 181.443 105.539 182.168V188.952ZM133.529 200.728V195.544C133.529 194.776 133.401 194.285 133.145 194.072C132.889 193.816 132.377 193.688 131.609 193.688H128.345C124.377 193.688 122.393 191.811 122.393 188.056V181.464C122.393 177.667 124.377 175.768 128.345 175.768H133.017C137.028 175.768 139.033 177.667 139.033 181.464V184.472H133.401V182.04C133.401 181.272 133.273 180.781 133.017 180.568C132.761 180.312 132.249 180.184 131.481 180.184H129.945C129.177 180.184 128.665 180.312 128.409 180.568C128.153 180.781 128.025 181.272 128.025 182.04V187.416C128.025 188.184 128.153 188.696 128.409 188.952C128.665 189.165 129.177 189.272 129.945 189.272H133.273C137.199 189.272 139.161 191.171 139.161 194.968V201.368C139.161 205.123 137.177 207 133.209 207H128.473C124.505 207 122.521 205.123 122.521 201.368V198.296H128.153V200.728C128.153 201.496 128.281 202.008 128.537 202.264C128.793 202.477 129.305 202.584 130.073 202.584H131.609C132.377 202.584 132.889 202.477 133.145 202.264C133.401 202.008 133.529 201.496 133.529 200.728Z" fill="white"/>
<path d="M48.8313 253.071V245.727C48.8313 245.151 48.7353 244.783 48.5433 244.623C48.3833 244.431 48.0153 244.335 47.4393 244.335H43.8873C40.9753 244.335 39.5193 242.911 39.5193 240.063V232.143C39.5193 229.327 41.0073 227.919 43.9833 227.919H48.6873C51.6633 227.919 53.1513 229.327 53.1513 232.143V236.559H48.7833V232.815C48.7833 232.239 48.6873 231.871 48.4953 231.711C48.3033 231.519 47.9193 231.423 47.3433 231.423H45.3273C44.7513 231.423 44.3673 231.519 44.1753 231.711C43.9833 231.871 43.8873 232.239 43.8873 232.815V239.487C43.8873 240.063 43.9833 240.447 44.1753 240.639C44.3673 240.799 44.7513 240.879 45.3273 240.879H48.8313C51.7753 240.879 53.2473 242.287 53.2473 245.103V253.743C53.2473 256.559 51.7433 257.967 48.7353 257.967H44.0793C41.1033 257.967 39.6153 256.559 39.6153 253.743V249.327H43.9833V253.071C43.9833 253.647 44.0793 254.031 44.2713 254.223C44.4633 254.383 44.8473 254.463 45.4233 254.463H47.4393C48.0153 254.463 48.3833 254.383 48.5433 254.223C48.7353 254.031 48.8313 253.647 48.8313 253.071ZM65.8871 234.543H70.2071V257.967H65.8871V256.095C65.4711 257.343 64.4791 257.967 62.9111 257.967H61.1831C58.3031 257.967 56.8631 256.559 56.8631 253.743V238.815C56.8631 235.967 58.3031 234.543 61.1831 234.543H62.9111C64.4791 234.543 65.4711 235.167 65.8871 236.415V234.543ZM62.6231 254.463H64.3031C64.8791 254.463 65.2791 254.335 65.5031 254.079C65.7591 253.823 65.8871 253.391 65.8871 252.783V239.727C65.8871 239.119 65.7591 238.687 65.5031 238.431C65.2791 238.175 64.8791 238.047 64.3031 238.047H62.6231C62.0471 238.047 61.6631 238.143 61.4711 238.335C61.2791 238.495 61.1831 238.863 61.1831 239.439V253.071C61.1831 253.647 61.2791 254.031 61.4711 254.223C61.6631 254.383 62.0471 254.463 62.6231 254.463ZM76.8479 234.543L79.9199 254.319L83.0399 234.543H87.3599L83.0399 257.967H76.8479L72.5279 234.543H76.8479ZM94.0503 234.543H98.7543C101.762 234.543 103.266 235.967 103.266 238.815V247.599H93.8103V253.167C93.8103 253.711 93.9063 254.079 94.0983 254.271C94.2903 254.463 94.6743 254.559 95.2503 254.559H97.4583C98.0343 254.559 98.4183 254.463 98.6103 254.271C98.8023 254.079 98.8983 253.695 98.8983 253.119V251.199H103.122V253.743C103.122 256.559 101.634 257.967 98.6583 257.967H94.0503C91.0743 257.967 89.5863 256.559 89.5863 253.743V238.815C89.5863 235.967 91.0743 234.543 94.0503 234.543ZM93.8103 244.431H98.9943V239.343C98.9943 238.799 98.8983 238.431 98.7063 238.239C98.5463 238.047 98.1783 237.951 97.6023 237.951H95.2503C94.6743 237.951 94.2903 238.047 94.0983 238.239C93.9063 238.431 93.8103 238.799 93.8103 239.343V244.431ZM115.091 234.495H116.051V238.239H114.323C112.307 238.239 111.299 239.423 111.299 241.791V257.967H106.979V234.543H111.299V237.423C111.555 236.591 112.003 235.903 112.643 235.359C113.315 234.783 114.131 234.495 115.091 234.495Z" fill="#11E485"/>
</g>
<defs>
<clipPath id="clip0">
<rect width="151" height="258" fill="white"/>
</clipPath>
<clipPath id="clip1">
<rect width="153.728" height="190.64" fill="white" transform="translate(0.135864)"/>
</clipPath>
</defs>
</svg>
